ply
format ascii 1.0
comment VCGLIB generated
element vertex 102
property float x
property float y
property float z
element face 188
property list uchar int vertex_indices
end_header
10.59396 -2.202183 -0.503221 
10.6823 -2.04785 0.091146 
10.59396 -2.202183 0.685513 
10.38067 -2.574776 0.931708 
10.16739 -2.947368 0.685513 
10.07905 -3.101702 0.091146 
10.16739 -2.947368 -0.503221 
10.38067 -2.574776 -0.749416 
-12.34967 -2.858989 -2.674406 
-12.34968 -2.858992 -1e-06 
-12.34967 -2.85899 2.674405 
-12.34967 -2.85899 3.782181 
-12.34967 -2.858989 -3.78218 
-0.42391 2.758694 -1e-06 
-0.388025 1.975227 -2.621356 
-0.388026 1.975227 2.621355 
-0.30139 0.083769 3.707157 
-0.214756 -1.807689 2.621355 
-0.178874 -2.591157 -1e-06 
-0.214756 -1.807689 -2.621356 
-0.30139 0.08377 -3.707156 
7.229306 1.412554 -0 
-8.872946 -0.240102 -0 
7.085926 0.835506 -1.987332 
-8.800016 -0.512077 -0.941146 
7.085926 0.835506 1.987332 
-8.800017 -0.512077 0.941146 
6.739779 -0.557612 2.810512 
-8.62395 -1.168684 1.330982 
6.39363 -1.950729 1.987332 
-8.447884 -1.825291 0.941146 
6.250251 -2.527778 -0 
-8.374955 -2.097266 -0 
6.39363 -1.950729 -1.987332 
-8.447884 -1.825291 -0.941147 
6.739779 -0.557612 -2.810512 
-8.62395 -1.168683 -1.330982 
9.015208 -0.700111 0.091146 
3.944467 2.627152 -0 
-11.40417 -1.956684 -1e-06 
-5.576774 1.2038 -1e-06 
8.877179 -0.941241 -0.837493 
3.881884 1.860906 -2.569575 
-11.35442 -2.054038 -2.457081 
-5.494246 0.693696 -1.727106 
3.881884 1.860907 2.569575 
8.877179 -0.941241 1.019785 
-5.494247 0.693697 1.727105 
-11.35442 -2.054038 2.45708 
3.730802 0.011026 3.633929 
8.543946 -1.52338 1.40444 
-5.295007 -0.537802 2.442496 
-11.23432 -2.289069 3.474838 
3.579716 -1.838854 2.569575 
8.210711 -2.105519 1.019785 
-5.095767 -1.769301 1.727105 
-11.11423 -2.524102 2.457081 
3.517133 -2.6051 -1e-06 
8.072681 -2.346649 0.091146 
-5.013242 -2.279405 -1e-06 
-11.06449 -2.621459 -1e-06 
3.579716 -1.838854 -2.569576 
8.210711 -2.105519 -0.837493 
-5.095767 -1.769301 -1.727106 
-11.11423 -2.524102 -2.457082 
3.730802 0.011027 -3.633929 
8.543946 -1.52338 -1.222148 
-5.295007 -0.537801 -2.442495 
-11.23433 -2.28907 -3.474837 
10.95895 -2.838817 0.091146 
1.84782 5.087597 -0.21817 
3.389461 2.457077 -0.425462 
-0.442348 1.586433 -0.425462 
-2.117652 5.497619 -0.21817 
1.84782 5.087597 0.219159 
3.389461 2.457077 0.42739 
-0.44235 1.586433 0.427391 
-2.117652 5.497621 0.219159 
4.171323 -1.924285 2.256283 
2.755408 -3.083368 3.862434 
-0.624293 -3.891693 5.205618 
0.444659 -2.562581 3.415578 
0.360146 -1.192082 1.680464 
4.202501 -1.499071 2.590624 
2.786585 -2.658154 4.196775 
-0.593115 -3.46648 5.539959 
0.475837 -2.137368 3.749921 
0.391324 -0.766867 2.014803 
2.16194 -2.467178 3.134107 
2.193118 -2.041964 3.468448 
2.193118 -1.939688 -3.464673 
2.16194 -2.364902 -3.160261 
0.391324 -0.664591 -2.141159 
0.475837 -2.035093 -3.720947 
-0.593115 -3.364204 -5.350738 
2.786585 -2.555878 -4.127798 
4.202501 -1.396795 -2.665431 
0.360146 -1.089806 -1.836749 
0.444659 -2.460305 -3.416535 
-0.624293 -3.789418 -5.046328 
2.755408 -2.981092 -3.823387 
4.171323 -1.822009 -2.361021 
3 0 41 37 
3 0 37 1 
3 41 23 21 
3 41 21 37 
3 23 42 38 
3 23 38 21 
3 42 14 13 
3 42 13 38 
3 14 44 40 
3 14 40 13 
3 44 24 22 
3 44 22 40 
3 24 43 39 
3 24 39 22 
3 43 8 9 
3 43 9 39 
3 1 37 46 
3 1 46 2 
3 37 21 25 
3 37 25 46 
3 21 38 45 
3 21 45 25 
3 38 13 15 
3 38 15 45 
3 13 40 47 
3 13 47 15 
3 40 22 26 
3 40 26 47 
3 22 39 48 
3 22 48 26 
3 39 9 10 
3 39 10 48 
3 2 46 50 
3 2 50 3 
3 46 25 27 
3 46 27 50 
3 25 45 49 
3 25 49 27 
3 45 15 16 
3 45 16 49 
3 15 47 51 
3 15 51 16 
3 47 26 28 
3 47 28 51 
3 26 48 52 
3 26 52 28 
3 48 10 11 
3 48 11 52 
3 3 50 54 
3 3 54 4 
3 50 27 29 
3 50 29 54 
3 27 49 53 
3 27 53 29 
3 49 16 17 
3 49 17 53 
3 16 51 55 
3 16 55 17 
3 51 28 30 
3 51 30 55 
3 28 52 56 
3 28 56 30 
3 52 11 10 
3 52 10 56 
3 4 54 58 
3 4 58 5 
3 54 29 31 
3 54 31 58 
3 29 53 57 
3 29 57 31 
3 53 17 18 
3 53 18 57 
3 17 55 59 
3 17 59 18 
3 55 30 32 
3 55 32 59 
3 30 56 60 
3 30 60 32 
3 56 10 9 
3 56 9 60 
3 5 58 62 
3 5 62 6 
3 58 31 33 
3 58 33 62 
3 31 57 61 
3 31 61 33 
3 57 18 19 
3 57 19 61 
3 18 59 63 
3 18 63 19 
3 59 32 34 
3 59 34 63 
3 32 60 64 
3 32 64 34 
3 60 9 8 
3 60 8 64 
3 6 62 66 
3 6 66 7 
3 62 33 35 
3 62 35 66 
3 33 61 65 
3 33 65 35 
3 61 19 20 
3 61 20 65 
3 19 63 67 
3 19 67 20 
3 63 34 36 
3 63 36 67 
3 34 64 68 
3 34 68 36 
3 64 8 12 
3 64 12 68 
3 8 43 68 
3 8 68 12 
3 43 24 36 
3 43 36 68 
3 24 44 67 
3 24 67 36 
3 44 14 20 
3 44 20 67 
3 14 42 65 
3 14 65 20 
3 42 23 35 
3 42 35 65 
3 23 41 66 
3 23 66 35 
3 41 0 7 
3 41 7 66 
3 0 1 69 
3 1 2 69 
3 2 3 69 
3 3 4 69 
3 4 5 69 
3 5 6 69 
3 6 7 69 
3 7 0 69 
3 72 73 70 
3 72 70 71 
3 74 77 76 
3 74 76 75 
3 70 74 75 
3 70 75 71 
3 71 75 76 
3 71 76 72 
3 72 76 77 
3 72 77 73 
3 73 77 74 
3 73 74 70 
3 88 78 79 
3 89 84 83 
3 88 79 80 
3 89 85 84 
3 88 80 81 
3 89 86 85 
3 88 81 82 
3 89 87 86 
3 88 82 78 
3 89 83 87 
3 78 83 84 
3 78 84 79 
3 79 84 85 
3 79 85 80 
3 80 85 86 
3 80 86 81 
3 81 86 87 
3 81 87 82 
3 82 87 83 
3 82 83 78 
3 97 92 96 
3 97 96 101 
3 98 93 92 
3 98 92 97 
3 99 94 93 
3 99 93 98 
3 100 95 94 
3 100 94 99 
3 101 96 95 
3 101 95 100 
3 90 96 92 
3 91 97 101 
3 90 92 93 
3 91 98 97 
3 90 93 94 
3 91 99 98 
3 90 94 95 
3 91 100 99 
3 90 95 96 
3 91 101 100 
